<?xml version="1.0" encoding="UTF-8"?>
<svg xmlns="http://www.w3.org/2000/svg" xmlns:xlink="http://www.w3.org/1999/xlink" width="20pt" height="20pt" viewBox="0 0 20 20" version="1.1">
<g id="surface1">
<path style=" stroke:none;fill-rule:nonzero;fill:rgb(0%,0%,0%);fill-opacity:1;" d="M 10 0 C 4.488281 0 0 4.484375 0 10 C 0 15.515625 4.488281 20 10 20 C 15.515625 20 20 15.515625 20 10 C 20 4.484375 15.511719 0 10 0 Z M 10 18.449219 C 5.339844 18.449219 1.550781 14.660156 1.550781 10 C 1.550781 5.339844 5.339844 1.550781 10 1.550781 C 14.660156 1.550781 18.449219 5.339844 18.449219 10 C 18.449219 14.660156 14.660156 18.449219 10 18.449219 Z M 10 18.449219 "/>
<path style=" stroke:none;fill-rule:nonzero;fill:rgb(0%,0%,0%);fill-opacity:1;" d="M 13.871094 9.15625 L 6.128906 9.15625 C 5.699219 9.15625 5.351562 9.503906 5.351562 9.929688 C 5.351562 10.359375 5.699219 10.703125 6.128906 10.703125 L 13.871094 10.703125 C 14.300781 10.703125 14.648438 10.359375 14.648438 9.929688 C 14.648438 9.503906 14.300781 9.15625 13.871094 9.15625 Z M 13.871094 9.15625 "/>
</g>
</svg>
